HIERARCHY
ROOT hip
{
  OFFSET 0 0 0
  CHANNELS 6 Xposition Yposition Zposition Zrotation Yrotation Xrotation
  JOINT abdomen
  {
    OFFSET 0 20.6881 -0.73152
    CHANNELS 3 Zrotation Xrotation Yrotation
    JOINT chest
    {
      OFFSET 0 11.7043 -0.48768
      CHANNELS 3 Zrotation Xrotation Yrotation
      JOINT neck
      {
        OFFSET 0 22.1894 -2.19456
        CHANNELS 3 Zrotation Xrotation Yrotation
        JOINT head
        {
          OFFSET -0.24384 7.07133 1.2192
          CHANNELS 3 Zrotation Xrotation Yrotation
          JOINT leftEye
          {
            OFFSET 4.14528 8.04674 8.04672
            CHANNELS 3 Zrotation Xrotation Yrotation
            End Site
            {
              OFFSET 1 0 0
            }
          }
          JOINT rightEye
          {
            OFFSET -3.6576 8.04674 8.04672
            CHANNELS 3 Zrotation Xrotation Yrotation
            End Site
            {
              OFFSET 1 0 0
            }
          }
        }
      }
      JOINT rCollar
      {
        OFFSET -2.68224 19.2634 -4.8768
        CHANNELS 3 Zrotation Xrotation Yrotation
        JOINT rShldr
        {
          OFFSET -8.77824 -1.95073 1.46304
          CHANNELS 3 Zrotation Xrotation Yrotation
          JOINT rForeArm
          {
            OFFSET -28.1742 -1.7115 0.48768
            CHANNELS 3 Zrotation Xrotation Yrotation
            JOINT rHand
            {
              OFFSET -22.5879 0.773209 7.07136
              CHANNELS 3 Zrotation Xrotation Yrotation
              JOINT rThumb1
              {
                OFFSET -1.2192 -0.487915 3.41376
                CHANNELS 3 Zrotation Xrotation Yrotation
                JOINT rThumb2
                {
                  OFFSET -3.37035 -0.52449 3.41376
                  CHANNELS 3 Zrotation Xrotation Yrotation
                  End Site
                  {
                    OFFSET -1.78271 -1.18214 1.43049
                  }
                }
              }
              JOINT rIndex1
              {
                OFFSET -7.75947 0.938293 5.60832
                CHANNELS 3 Zrotation Xrotation Yrotation
                JOINT rIndex2
                {
                  OFFSET -2.54057 -0.884171 1.56538
                  CHANNELS 3 Zrotation Xrotation Yrotation
                  End Site
                  {
                    OFFSET -1.62519 -0.234802 1.16502
                  }
                }
              }
              JOINT rMid1
              {
                OFFSET -8.24714 1.18213 3.41376
                CHANNELS 3 Zrotation Xrotation Yrotation
                JOINT rMid2
                {
                  OFFSET -3.10165 -0.590103 1.0647
                  CHANNELS 3 Zrotation Xrotation Yrotation
                  End Site
                  {
                    OFFSET -2.48547 -0.328903 0.83742
                  }
                }
              }
              JOINT rRing1
              {
                OFFSET -8.82822 0.546677 1.51678
                CHANNELS 3 Zrotation Xrotation Yrotation
                JOINT rRing2
                {
                  OFFSET -2.60934 -0.819778 -0.0198488
                  CHANNELS 3 Zrotation Xrotation Yrotation
                  End Site
                  {
                    OFFSET -2.33842 -0.294052 0.168128
                  }
                }
              }
              JOINT rPinky1
              {
                OFFSET -8.27202 -0.0477905 -0.4584
                CHANNELS 3 Zrotation Xrotation Yrotation
                JOINT rPinky2
                {
                  OFFSET -1.82734 -0.647385 -0.700984
                  CHANNELS 3 Zrotation Xrotation Yrotation
                  End Site
                  {
                    OFFSET -1.69225 -0.51767 -0.607171
                  }
                }
              }
            }
          }
        }
      }
      JOINT lCollar
      {
        OFFSET 2.68224 19.2634 -4.8768
        CHANNELS 3 Zrotation Xrotation Yrotation
        JOINT lShldr
        {
          OFFSET 8.77824 -1.95073 1.46304
          CHANNELS 3 Zrotation Xrotation Yrotation
          JOINT lForeArm
          {
            OFFSET 28.1742 -1.7115 0.48768
            CHANNELS 3 Zrotation Xrotation Yrotation
            JOINT lHand
            {
              OFFSET 22.5879 0.773209 7.07136
              CHANNELS 3 Zrotation Xrotation Yrotation
              JOINT lThumb1
              {
                OFFSET 1.2192 -0.487915 3.41376
                CHANNELS 3 Zrotation Xrotation Yrotation
                JOINT lThumb2
                {
                  OFFSET 3.37035 -0.52449 3.41376
                  CHANNELS 3 Zrotation Xrotation Yrotation
                  End Site
                  {
                    OFFSET 1.78271 -1.18214 1.43049
                  }
                }
              }
              JOINT lIndex1
              {
                OFFSET 7.75947 0.938293 5.60832
                CHANNELS 3 Zrotation Xrotation Yrotation
                JOINT lIndex2
                {
                  OFFSET 2.54057 -0.884171 1.56538
                  CHANNELS 3 Zrotation Xrotation Yrotation
                  End Site
                  {
                    OFFSET 1.62519 -0.234802 1.16502
                  }
                }
              }
              JOINT lMid1
              {
                OFFSET 8.24714 1.18213 3.41376
                CHANNELS 3 Zrotation Xrotation Yrotation
                JOINT lMid2
                {
                  OFFSET 3.10165 -0.590103 1.0647
                  CHANNELS 3 Zrotation Xrotation Yrotation
                  End Site
                  {
                    OFFSET 2.48547 -0.328903 0.83742
                  }
                }
              }
              JOINT lRing1
              {
                OFFSET 8.82822 0.546677 1.51678
                CHANNELS 3 Zrotation Xrotation Yrotation
                JOINT lRing2
                {
                  OFFSET 2.60934 -0.819778 -0.0198488
                  CHANNELS 3 Zrotation Xrotation Yrotation
                  End Site
                  {
                    OFFSET 2.33842 -0.294052 0.168128
                  }
                }
              }
              JOINT lPinky1
              {
                OFFSET 8.27202 -0.0477905 -0.4584
                CHANNELS 3 Zrotation Xrotation Yrotation
                JOINT lPinky2
                {
                  OFFSET 1.82734 -0.647385 -0.700984
                  CHANNELS 3 Zrotation Xrotation Yrotation
                  End Site
                  {
                    OFFSET 1.69225 -0.51767 -0.607171
                  }
                }
              }
            }
          }
        }
      }
    }
  }
  JOINT rButtock
  {
    OFFSET -8.77824 4.35084 1.2192
    CHANNELS 3 Zrotation Xrotation Yrotation
    JOINT rThigh
    {
      OFFSET 0 -1.70687 -2.19456
      CHANNELS 3 Zrotation Xrotation Yrotation
      JOINT rShin
      {
        OFFSET 0 -36.8199 0.73152
        CHANNELS 3 Zrotation Xrotation Yrotation
        JOINT rFoot
        {
          OFFSET 0.73152 -45.1104 -5.12064
          CHANNELS 3 Zrotation Xrotation Yrotation
          End Site
          {
            OFFSET -1.1221 -3.69964 12.103
          }
        }
      }
    }
  }
  JOINT lButtock
  {
    OFFSET 8.77824 4.35084 1.2192
    CHANNELS 3 Zrotation Xrotation Yrotation
    JOINT lThigh
    {
      OFFSET 0 -1.70687 -2.19456
      CHANNELS 3 Zrotation Xrotation Yrotation
      JOINT lShin
      {
        OFFSET 0 -36.8199 0.73152
        CHANNELS 3 Zrotation Xrotation Yrotation
        JOINT lFoot
        {
          OFFSET -0.73152 -45.1104 -5.12064
          CHANNELS 3 Zrotation Xrotation Yrotation
          End Site
          {
            OFFSET 1.1221 -3.69964 12.103
          }
        }
      }
    }
  }
}
MOTION
Frames:	4
Frame Time:	0.03333
-2.983600026462227 61.11539840698242 -20.019699831143953 -157.00600147247314 78.65879952907562 -142.29499697685242 5.868150293827057 20.128400176763535 10.490700155496597 -3.70705995708704 -14.039600640535355 2.7764299884438515 0.42168600484728813 13.71810033917427 12.246100008487701 -1.5350399538874626 -29.514800012111664 24.07949924468994 0.0 0.0 0.0 0.0 0.0 0.0 0.0 0.0 0.0 41.18170112371445 51.42970025539398 5.966950133442879 -28.163999319076538 -39.428700506687164 82.91320145130157 -0.08900229586288333 8.540319800376892 1.2091499660164118 -3.1373303954751464e-09 5.284732651489321e-09 3.1309355108533055e-09 -5.397282620833721e-09 9.090967978409026e-09 5.43309397471603e-09 -3.1373303954751464e-09 5.284732651489321e-09 3.1309355108533055e-09 7.7309102565050125 5.474880114197731 0.41731400415301323 -3.1373303954751464e-09 5.284732651489321e-09 3.1309355108533055e-09 2.905540131032467 0.9651830233633518 0.102901995414868 -3.1373303954751464e-09 5.284732651489321e-09 3.1309355108533055e-09 10.27859978377819 0.7318009994924068 0.025912300043273717 -3.1373303954751464e-09 5.284732651489321e-09 3.1309355108533055e-09 2.221670038998127 -0.733487019315362 -0.2089200052432716 0.0 0.0 0.0 -52.82869756221771 18.437099754810333 -34.001701176166534 27.737798988819122 -41.61949932575226 -86.87479734420776 2.5008799508213997 -40.21439999341965 6.824369877576828 2.007993771258043e-10 3.8625103115919046e-10 3.2230218494078144e-10 3.2741809263825417e-10 6.855316314613447e-10 5.806555236631539e-10 2.007993771258043e-10 3.8625103115919046e-10 3.2230218494078144e-10 -7.7309102565050125 5.474880114197731 -0.41731400415301323 2.007993771258043e-10 3.8625103115919046e-10 3.2230218494078144e-10 -2.905540131032467 0.9651830233633518 -0.102901995414868 2.007993771258043e-10 3.8625103115919046e-10 3.2230218494078144e-10 -10.27859978377819 0.7318009994924068 -0.025912300043273717 2.007993771258043e-10 3.8625103115919046e-10 3.2230218494078144e-10 -2.221670038998127 -0.733487019315362 0.2089200052432716 0.0 0.0 0.0 -43.96450102329254 -48.622097969055176 -33.18839907646179 -2.324580028653145 72.90650188922882 3.391459845006466 -1.0097200144082308 0.844801040366292 -12.834899872541428 0.0 0.0 0.0 40.17510026693344 -67.17849969863892 35.44969975948334 3.9249099791049957 78.45079958438873 -4.964520111680031 2.653779946267605 -19.201400578022003 7.268329784274101
-2.9334000260569155 62.13589859008789 -22.007999797002412 -161.46799564361572 80.1002025604248 -146.74100518226624 4.800589866936207 20.034500062465668 10.306600034236908 -3.6824701353907585 -13.866399675607681 2.708829939365387 0.4559850040823221 13.805100470781326 12.209399342536926 -1.9531200639903545 -29.148399531841278 23.877400159835815 0.0 0.0 0.0 0.0 0.0 0.0 0.0 0.0 0.0 42.066999077796936 51.11890196800232 4.196450114250183 -28.163900077342987 -39.42970097064972 82.91480004787445 -0.12360100052319467 9.965520277619362 1.4150099270045757 -3.3087133033404825e-09 6.3513994064123835e-09 3.5069547266175505e-09 -5.697842198060243e-09 1.0937810657196678e-08 6.077698344597593e-09 -3.3087133033404825e-09 6.3513994064123835e-09 3.5069547266175505e-09 7.7309102565050125 5.474880114197731 0.41731400415301323 -3.3087133033404825e-09 6.3513994064123835e-09 3.5069547266175505e-09 2.905540131032467 0.9651830233633518 0.102901995414868 -3.3087133033404825e-09 6.3513994064123835e-09 3.5069547266175505e-09 10.27859978377819 0.7318009994924068 0.025912300043273717 -3.3087133033404825e-09 6.3513994064123835e-09 3.5069547266175505e-09 2.221670038998127 -0.733487019315362 -0.2089200052432716 0.0 0.0 0.0 -52.54220008850098 18.259699791669846 -33.23310077190399 27.461400032043457 -42.656401097774506 -88.80959808826447 2.4824499897658825 -40.09610116481781 6.7957500368356705 4.092726157978177e-11 1.227817847393453e-10 -1.9952040020143613e-10 6.650680006714538e-11 2.3277380023500882e-10 -3.2230218494078144e-10 4.092726157978177e-11 1.227817847393453e-10 -1.9952040020143613e-10 -7.7309102565050125 5.474880114197731 -0.41731400415301323 4.092726157978177e-11 1.227817847393453e-10 -1.9952040020143613e-10 -2.905540131032467 0.9651830233633518 -0.102901995414868 4.092726157978177e-11 1.227817847393453e-10 -1.9952040020143613e-10 -10.27859978377819 0.7318009994924068 -0.025912300043273717 4.092726157978177e-11 1.227817847393453e-10 -1.9952040020143613e-10 -2.221670038998127 -0.733487019315362 0.2089200052432716 0.0 0.0 0.0 -45.062801241874695 -51.58500015735626 -37.010300159454346 -3.6538801342248917 77.63250052928925 4.60973996669054 -1.6025999374687672 -2.6060699857771397 -10.467700213193893 0.0 0.0 0.0 32.05069988965988 -66.00970029830933 30.289000868797302 3.1841599568724632 76.37310147285461 -4.190269969403744 3.09479009360075 -18.716100454330444 8.194100260734558
-2.776400020811707 63.10850143432617 -24.287399907247163 -171.85199618339539 81.83039903640747 -157.16100096702576 3.0386799573898315 19.795999377965927 10.179999768733978 -3.500029966235161 -13.489999920129776 2.648820038884878 0.5831319792196155 13.834399580955505 12.242300659418106 -2.7618600614368916 -28.571000397205353 23.710899353027344 0.0 0.0 0.0 0.0 0.0 0.0 0.0 0.0 0.0 42.736199498176575 50.941999554634094 2.74149002507329 -28.162899613380432 -39.44430023431778 82.93410122394562 -0.15248699812218547 11.0733000934124 1.5760499238967896 2.638529394971556e-09 -5.215667897573439e-09 -3.1181457416096237e-09 4.532694219960831e-09 -8.980975962913362e-09 -5.422862159321085e-09 2.638529394971556e-09 -5.215667897573439e-09 -3.1181457416096237e-09 7.7309102565050125 5.474880114197731 0.41731400415301323 2.638529394971556e-09 -5.215667897573439e-09 -3.1181457416096237e-09 2.905540131032467 0.9651830233633518 0.102901995414868 2.638529394971556e-09 -5.215667897573439e-09 -3.1181457416096237e-09 10.27859978377819 0.7318009994924068 0.025912300043273717 2.638529394971556e-09 -5.215667897573439e-09 -3.1181457416096237e-09 2.221670038998127 -0.733487019315362 -0.2089200052432716 0.0 0.0 0.0 -52.409897446632385 18.143499791622162 -32.0291993021965 27.094398736953735 -43.77570033073425 -90.97780466079712 2.501180022954941 -40.21600127220154 6.8247997015714645 -4.719424850918585e-10 -2.788169695122633e-10 -5.832134775118902e-10 -7.904077392595354e-10 -5.013589543523267e-10 -1.0257394933432806e-09 -4.719424850918585e-10 -2.788169695122633e-10 -5.832134775118902e-10 -7.7309102565050125 5.474880114197731 -0.41731400415301323 -4.719424850918585e-10 -2.788169695122633e-10 -5.832134775118902e-10 -2.905540131032467 0.9651830233633518 -0.102901995414868 -4.719424850918585e-10 -2.788169695122633e-10 -5.832134775118902e-10 -10.27859978377819 0.7318009994924068 -0.025912300043273717 -4.719424850918585e-10 -2.788169695122633e-10 -5.832134775118902e-10 -2.221670038998127 -0.733487019315362 0.2089200052432716 0.0 0.0 0.0 -47.17150032520294 -54.472097754478455 -42.35319882631302 -7.95929029583931 83.47629904747009 8.804530128836632 -2.3561900295317173 -6.069110110402107 -10.064900144934654 0.0 0.0 0.0 23.584299087524414 -64.5863002538681 25.502899289131165 2.665210012346506 74.32290136814117 -3.607349842786789 3.501969873905182 -18.23450043797493 9.003350213170052
-2.4941000253893435 64.03379821777344 -26.661199946538545 -191.89600467681885 83.0964982509613 -177.30299592018127 1.7493700794875622 19.58660066127777 10.069600045681 -3.9418501406908035 -12.92260006070137 2.5560499727725983 0.5286530032753944 13.942299485206604 12.247899770736694 -3.228200152516365 -28.188600540161133 23.590999245643616 0.0 0.0 0.0 0.0 0.0 0.0 0.0 0.0 0.0 43.8768008351326 50.67390203475952 1.1701400019228458 -28.15600097179413 -39.495101273059845 83.02069902420044 -0.16626799944788218 11.526499539613724 1.6424800269305706 2.9825741876265965e-09 -6.169784683152102e-09 -3.320224095659796e-09 5.127418489792035e-09 -1.062062437995337e-08 -5.768185928900493e-09 2.9825741876265965e-09 -6.169784683152102e-09 -3.320224095659796e-09 7.7309102565050125 5.474880114197731 0.41731400415301323 2.9825741876265965e-09 -6.169784683152102e-09 -3.320224095659796e-09 2.905540131032467 0.9651830233633518 0.102901995414868 2.9825741876265965e-09 -6.169784683152102e-09 -3.320224095659796e-09 10.27859978377819 0.7318009994924068 0.025912300043273717 2.9825741876265965e-09 -6.169784683152102e-09 -3.320224095659796e-09 2.221670038998127 -0.733487019315362 -0.2089200052432716 0.0 0.0 0.0 -52.27350175380707 18.110900223255157 -30.627200603485107 26.699800193309784 -44.77119952440262 -92.99899935722351 2.4978200532495975 -40.19340097904205 6.8194399774074554 -9.106315701501444e-10 -1.892885848064907e-10 -5.269384928396903e-10 -1.5501200323342346e-09 -3.5299763112561777e-10 -9.490008778811898e-10 -9.106315701501444e-10 -1.892885848064907e-10 -5.269384928396903e-10 -7.7309102565050125 5.474880114197731 -0.41731400415301323 -9.106315701501444e-10 -1.892885848064907e-10 -5.269384928396903e-10 -2.905540131032467 0.9651830233633518 -0.102901995414868 -9.106315701501444e-10 -1.892885848064907e-10 -5.269384928396903e-10 -10.27859978377819 0.7318009994924068 -0.025912300043273717 -9.106315701501444e-10 -1.892885848064907e-10 -5.269384928396903e-10 -2.221670038998127 -0.733487019315362 0.2089200052432716 0.0 0.0 0.0 -48.526997566223145 -56.268099546432495 -47.55809783935547 -31.720200777053833 88.0860024690628 32.43360131978989 -2.5607899390161037 -8.497859761118889 -8.660480082035065 0.0 0.0 0.0 16.036400645971298 -62.98530042171478 21.416100561618805 2.3795099928975105 72.7620005607605 -3.1887099891901016 3.0310698598623276 -17.601099461317062 7.552430033683777
